<?xml version="1.0" encoding="UTF-8"?>
<svg width="28px" height="37px" viewBox="0 0 28 37" version="1.1" xmlns="http://www.w3.org/2000/svg" xmlns:xlink="http://www.w3.org/1999/xlink">
    <!-- Generator: Sketch 41 (35326) - http://www.bohemiancoding.com/sketch -->
    <title>icon-music</title>
    <desc>Created with Sketch.</desc>
    <defs></defs>
    <g id="Templates" stroke="none" stroke-width="1" fill="none" fill-rule="evenodd" stroke-linejoin="round">
        <g id="Template-12" transform="translate(-1088.000000, -1471.000000)" stroke="#303030" stroke-width="2">
            <g id="Content-71" transform="translate(194.000000, 1024.000000)">
                <g id="Items" transform="translate(0.000000, 420.000000)">
                    <g id="Item-3" transform="translate(763.000000, 28.000000)">
                        <g id="icon-music" transform="translate(132.000000, 0.000000)">
                            <path d="M9,30.4347826 C9,32.7173913 6.9855,35 4.5,35 C2.016,35 0,32.9563043 0,30.4347826 C0,27.9147826 2.016,25.8695652 4.5,25.8695652 L9,25.8695652 L9,30.4347826 L9,30.4347826 Z" id="Stroke-5632"></path>
                            <path d="M26,24.3478261 C26,26.6304348 23.9855,28.9130435 21.5,28.9130435 C19.016,28.9130435 17,26.8693478 17,24.3478261 C17,21.8278261 19.016,19.7826087 21.5,19.7826087 L26,19.7826087 L26,24.3478261 L26,24.3478261 Z" id="Stroke-5633"></path>
                            <polyline id="Stroke-5634" points="9 27.3913043 9 7.04347826 26 0 26 22.6956522"></polyline>
                            <path d="M9,12.173913 L26,5.07246377" id="Stroke-5635"></path>
                        </g>
                    </g>
                </g>
            </g>
        </g>
    </g>
</svg>